<?xml version="1.0" encoding="utf-8"?>
<!-- Generator: Adobe Illustrator 23.0.4, SVG Export Plug-In . SVG Version: 6.00 Build 0)  -->
<svg version="1.1" id="Layer_1" xmlns="http://www.w3.org/2000/svg" xmlns:xlink="http://www.w3.org/1999/xlink" x="0px" y="0px"
	 viewBox="0 0 900 726.22" style="enable-background:new 0 0 900 726.22;" xml:space="preserve">
<style type="text/css">
	.st0{fill:#968EAB;}
	.st1{fill:#0E254A;}
	.st2{fill:#F66438;}
	.st3{fill:#FFAC3D;}
	.st4{fill:#323966;}
	.st5{fill:#FFFFFF;}
	.st6{fill:none;stroke:#0E254A;stroke-width:5.2291;stroke-miterlimit:10;}
	.st7{fill:#5E1F3F;}
	.st8{fill:#E8EAEC;}
	.st9{fill:#D04234;}
	.st10{fill:#FA7C50;}
	.st11{fill:none;stroke:#968EAB;stroke-width:1.4382;stroke-miterlimit:10;}
	.st12{fill:#122F51;}
	.st13{fill:#65354D;}
	.st14{fill:#4E567A;}
	.st15{fill:#283154;}
	.st16{fill:#FFA280;}
	.st17{fill:none;stroke:#0E254A;stroke-width:1.4382;stroke-linecap:round;stroke-miterlimit:10;}
	.st18{clip-path:url(#SVGID_10_);}
	.st19{clip-path:url(#SVGID_10_);fill:#0E254A;}
	.st20{fill:none;stroke:#0C203A;stroke-width:31.6413;stroke-miterlimit:10;}
	.st21{fill:#613241;}
	.st22{fill:#FFC7BE;}
	.st23{fill:#FFC7AC;}
	.st24{opacity:0.49;}
	.st25{fill:none;stroke:#0E254A;stroke-width:1.2974;stroke-miterlimit:10;}
	.st26{fill:none;stroke:#0E254A;stroke-width:1.349;stroke-miterlimit:10;}
	.st27{fill:none;stroke:#FA7C50;stroke-width:1.4382;stroke-miterlimit:10;}
	.st28{fill:#AFAAC4;}
	.st29{fill:#827C91;}
	.st30{fill:#C4C4C9;}
	.st31{fill:none;stroke:#968EAB;stroke-width:1.7691;stroke-miterlimit:10;}
	.st32{fill:none;stroke:#968EAB;stroke-width:1.4611;stroke-miterlimit:10;}
	.st33{fill:#4257A4;}
	.st34{fill:#31477D;}
	.st35{fill:#FFD533;}
	.st36{fill:#A1CF3A;}
	.st37{fill:#709D2B;}
	.st38{fill:#4E8530;}
	.st39{fill:#53803A;}
	.st40{fill:#3D6A3A;}
	.st41{fill:#63B259;}
	.st42{fill:#A0533B;}
	.st43{fill:#4C79C1;}
</style>
<g>
	<g>
		<g>
			<g>
				<g>
					<defs>
						<path id="SVGID_1_" d="M499.86,636.37c4.24-71.32,3.1-137.26-2.46-150.61c-5.7-8.29-39.92-28.69-73.61-43.81l18.94-42.24
							c23.65,10.6,80.23,37.95,94.79,62.92c6.15,10.54,12.04,31.12,9.16,103.84c-1.51,38.09-3.37,67.93-3.37,67.93L499.86,636.37z"
							/>
					</defs>
					<clipPath id="SVGID_2_">
						<use xlink:href="#SVGID_1_"  style="overflow:visible;"/>
					</clipPath>
				</g>
			</g>
			<g>
				<g>
					<defs>
						<path id="SVGID_3_" d="M499.86,636.37c4.24-71.32,3.1-137.26-2.46-150.61c-5.7-8.29-39.92-28.69-73.61-43.81l18.94-42.24
							c23.65,10.6,80.23,37.95,94.79,62.92c6.15,10.54,12.04,31.12,9.16,103.84c-1.51,38.09-3.37,67.93-3.37,67.93L499.86,636.37z"
							/>
					</defs>
					<clipPath id="SVGID_4_">
						<use xlink:href="#SVGID_3_"  style="overflow:visible;"/>
					</clipPath>
				</g>
			</g>
			<g>
				<g>
					<defs>
						<path id="SVGID_5_" d="M499.86,636.37c4.24-71.32,3.1-137.26-2.46-150.61c-5.7-8.29-39.92-28.69-73.61-43.81l18.94-42.24
							c23.65,10.6,80.23,37.95,94.79,62.92c6.15,10.54,12.04,31.12,9.16,103.84c-1.51,38.09-3.37,67.93-3.37,67.93L499.86,636.37z"
							/>
					</defs>
					<clipPath id="SVGID_6_">
						<use xlink:href="#SVGID_5_"  style="overflow:visible;"/>
					</clipPath>
				</g>
			</g>
		</g>
		<g>
			<g>
				<g>
					<defs>
						<path id="SVGID_7_" d="M499.86,636.37c4.24-71.32,3.1-137.26-2.46-150.61c-5.7-8.29-39.92-28.69-73.61-43.81l18.94-42.24
							c23.65,10.6,80.23,37.95,94.79,62.92c6.15,10.54,12.04,31.12,9.16,103.84c-1.51,38.09-3.37,67.93-3.37,67.93L499.86,636.37z"
							/>
					</defs>
					<clipPath id="SVGID_8_">
						<use xlink:href="#SVGID_7_"  style="overflow:visible;"/>
					</clipPath>
				</g>
			</g>
			<g>
				<path class="st0" d="M860.8,693.47H18.02c-6.64,0-12.08-5.44-12.08-12.08l0,0c0-6.64,5.44-12.08,12.08-12.08H860.8
					c6.64,0,12.08,5.44,12.08,12.08l0,0C872.88,688.04,867.44,693.47,860.8,693.47z"/>
				<g>
					<g>
						<g>
							<path class="st1" d="M673.11,191.03L673.11,191.03c-5.98-6.38-5.47-16.23,1.16-22l0.75-0.65c6.62-5.77,16.85-5.27,22.83,1.12
								l0,0c5.98,6.38,5.47,16.23-1.16,22l-0.75,0.65C689.32,197.92,679.1,197.42,673.11,191.03z"/>
							<path class="st2" d="M685.82,222.01l-15.74,13.7l-44.7-47.67l15.74-13.7c10.91-9.5,26.55-10.76,38.69-4.17
								c3.07,1.66,5.9,3.81,8.39,6.47c6.17,6.58,8.99,14.94,8.57,23.16C696.33,208.02,692.65,216.07,685.82,222.01z"/>
							<path class="st3" d="M671.6,206.84l-15.74,13.7l-30.48-32.5l15.74-13.7c10.91-9.5,26.55-10.76,38.69-4.17
								c2.09,4.6,2.99,9.55,2.74,14.46C682.11,192.85,678.42,200.9,671.6,206.84z"/>
						</g>
						<path class="st4" d="M670.89,235.53c-4.75,4.24-18.78-2.84-31.35-15.85c-12.56-13.01-18.91-27-14.16-31.25
							c3.75-3.36,13.31,0.37,23.36,8.51c2.65,2.16,5.35,4.62,7.97,7.34c3.06,3.18,5.76,6.41,8.01,9.54
							C671.73,223.53,674.48,232.32,670.89,235.53z"/>
						<path class="st5" d="M664.74,213.82c-3.64,4.01-9.82,5.15-14.84,2.42c-5.73-3.12-7.75-10.14-4.51-15.67
							c0.86-1.48,2.02-2.71,3.37-3.64c2.65,2.16,5.35,4.62,7.97,7.34C659.79,207.45,662.49,210.68,664.74,213.82z"/>
					</g>
					<polyline class="st6" points="752.61,345.19 793.42,213.47 710.79,158.43 693.44,173.17 					"/>
					<g>
						<ellipse class="st1" cx="709.7" cy="159.21" rx="10.16" ry="9.79"/>
						<path class="st4" d="M714.78,159.21c0,2.7-2.27,4.89-5.08,4.89s-5.08-2.19-5.08-4.89s2.27-4.89,5.08-4.89
							S714.78,156.51,714.78,159.21z"/>
					</g>
					<path class="st3" d="M793.69,361.88H688.57l0,0c0-11.53,9.35-20.88,20.88-20.88h63.35
						C784.34,340.99,793.69,350.34,793.69,361.88L793.69,361.88z"/>
					<rect x="710.24" y="335.77" class="st1" width="18.97" height="5.74"/>
					<g>
						<ellipse class="st1" cx="792.61" cy="214.82" rx="14.22" ry="13.71"/>
						<ellipse class="st4" cx="792.61" cy="214.82" rx="7.11" ry="6.85"/>
					</g>
				</g>
				<g>
					<g>
						<path class="st7" d="M854.73,331.32h-97.75v-33.36h97.75c3.34,0,6.05,2.71,6.05,6.05v21.26
							C860.78,328.61,858.07,331.32,854.73,331.32z"/>
						<path class="st7" d="M819.62,331.32h-97.75v-33.36h97.75c3.34,0,6.05,2.71,6.05,6.05v21.26
							C825.67,328.61,822.96,331.32,819.62,331.32z"/>
						<path class="st8" d="M814.66,326.73h-92.79v-25.45h92.79c2.86,0,5.18,2.32,5.18,5.18v15.09
							C819.84,324.42,817.52,326.73,814.66,326.73z"/>
						<rect x="832.91" y="311.13" class="st5" width="21.94" height="2.41"/>
						<rect x="832.91" y="316.3" class="st5" width="21.94" height="2.41"/>
					</g>
					<g>
						<path class="st7" d="M870.38,272.29h-97.75v-33.36h97.75c3.34,0,6.05,2.71,6.05,6.05v21.26
							C876.42,269.58,873.72,272.29,870.38,272.29z"/>
						<path class="st7" d="M835.26,272.29h-97.75v-33.36h97.75c3.34,0,6.05,2.71,6.05,6.05v21.26
							C841.31,269.58,838.6,272.29,835.26,272.29z"/>
						<path class="st8" d="M831.52,268.93h-94.01v-26.67h94.01c2.86,0,5.18,2.32,5.18,5.18v16.31
							C836.7,266.61,834.38,268.93,831.52,268.93z"/>
						<rect x="845.94" y="249.47" class="st8" width="26.84" height="11.85"/>
						<rect x="848.55" y="252.1" class="st1" width="21.94" height="2.41"/>
						<rect x="848.55" y="256.05" class="st1" width="21.94" height="2.41"/>
					</g>
					<g>
						<path class="st1" d="M861.76,362.92H764v-33.36h97.75c3.34,0,6.05,2.71,6.05,6.05v21.26
							C867.8,360.21,865.1,362.92,861.76,362.92z"/>
						<path class="st1" d="M826.64,362.92h-97.75v-33.36h97.75c3.34,0,6.05,2.71,6.05,6.05v21.26
							C832.69,360.21,829.98,362.92,826.64,362.92z"/>
						<path class="st8" d="M821.68,358.33h-92.79v-24.23h92.79c2.86,0,5.18,2.32,5.18,5.18v13.87
							C826.86,356.02,824.54,358.33,821.68,358.33z"/>
						<rect x="837.32" y="340.1" class="st8" width="26.84" height="11.85"/>
						<rect x="839.93" y="342.73" class="st1" width="21.94" height="2.41"/>
						<rect x="839.93" y="346.68" class="st1" width="21.94" height="2.41"/>
					</g>
					<g>
						<path class="st9" d="M744.4,272.05v25.94h110.8c7.16,0,12.97-5.81,12.97-12.97c0-3.57-1.45-6.82-3.79-9.18
							c-2.36-2.34-5.6-3.79-9.18-3.79H744.4z"/>
						<path class="st10" d="M731.52,272.05v25.94h93.24c7.16,0,12.97-5.81,12.97-12.97c0-3.57-1.45-6.82-3.79-9.18
							c-2.36-2.34-5.6-3.79-9.18-3.79H731.52z"/>
						<path class="st8" d="M731.52,276.49v16.63h89.74c4.6,0,8.32-3.72,8.32-8.32c0-2.3-0.93-4.37-2.43-5.88
							c-1.51-1.5-3.59-2.43-5.88-2.43H731.52z"/>
					</g>
					<g>
						<line class="st11" x1="737.5" y1="246.17" x2="833.48" y2="246.17"/>
						<line class="st11" x1="737.5" y1="251.73" x2="833.48" y2="251.73"/>
						<line class="st11" x1="737.5" y1="257.29" x2="833.48" y2="257.29"/>
						<line class="st11" x1="737.5" y1="262.85" x2="833.48" y2="262.85"/>
					</g>
					<g>
						<line class="st11" x1="721.8" y1="306.15" x2="818.35" y2="306.15"/>
						<line class="st11" x1="721.8" y1="311.71" x2="818.35" y2="311.71"/>
						<line class="st11" x1="721.8" y1="317.27" x2="818.35" y2="317.27"/>
						<line class="st11" x1="721.8" y1="322.83" x2="818.35" y2="322.83"/>
					</g>
					<g>
						<line class="st11" x1="729.11" y1="338.05" x2="825.67" y2="338.05"/>
						<line class="st11" x1="729.11" y1="343.61" x2="825.67" y2="343.61"/>
						<line class="st11" x1="729.11" y1="347.94" x2="825.67" y2="347.94"/>
						<line class="st11" x1="729.11" y1="353.5" x2="825.67" y2="353.5"/>
					</g>
				</g>
				<rect x="185.76" y="389.49" class="st12" width="28.09" height="304.3"/>
				<g>
					<path class="st13" d="M478.36,477.86L310.7,490.44l-46.52-236.13l112.61-0.4c31.55-0.11,58.85,21.94,65.38,52.81L478.36,477.86
						z"/>
					<path class="st9" d="M276.6,479.39l-27.89-206.62c-1.24-9.2,5.27-17.75,14.48-19l0,0c9.21-1.24,17.75,5.27,19,14.48
						l27.89,206.62c1.24,9.21-5.27,17.75-14.48,19l0,0C286.39,495.11,277.84,488.6,276.6,479.39z"/>
					<g>
						<g>
							<rect x="372.11" y="507.7" class="st14" width="19.64" height="115.87"/>
							<path class="st1" d="M391.75,514.44v26.19l-19.64-7.6V515.3C377.02,515.07,386.49,514.67,391.75,514.44z"/>
						</g>
						<path class="st15" d="M427.44,517.07h-87.78c-4.83,0-8.78-3.95-8.78-8.78l0,0c0-4.83,3.95-8.78,8.78-8.78h87.78
							c4.83,0,8.78,3.95,8.78,8.78l0,0C436.22,513.12,432.27,517.07,427.44,517.07z"/>
						<path class="st13" d="M470.4,506.53H369.51c-12.07,0-21.95-9.88-21.95-21.95l0,0c0-12.07,9.88-21.95,21.95-21.95H470.4
							c12.07,0,21.95,9.88,21.95,21.95l0,0C492.35,496.66,482.48,506.53,470.4,506.53z"/>
						<path class="st9" d="M385.72,507.12h-88.64c-9.89,0-17.98-8.09-17.98-17.98v-7.93c0-9.89,8.09-17.98,17.98-17.98h88.64
							c9.89,0,17.98,8.09,17.98,17.98v7.93C403.7,499.03,395.6,507.12,385.72,507.12z"/>
						<g>
							<g>
								<path class="st1" d="M465.19,662.19H452.9c0-14.68-11.94-26.63-26.63-26.63h-89.53c-14.68,0-26.63,11.94-26.63,26.63h-12.29
									c0-21.46,17.46-38.92,38.92-38.92h89.53C447.73,623.28,465.19,640.74,465.19,662.19z"/>
							</g>
							<rect x="367.46" y="604.84" class="st1" width="28.67" height="18.73"/>
						</g>
						<g>
							
								<ellipse transform="matrix(0.2298 -0.9732 0.9732 0.2298 -422.274 814.5878)" class="st1" cx="303.5" cy="674.08" rx="10.21" ry="10.21"/>
							<path class="st4" d="M318.22,673.18h-27.94v-5.53c0-6.08,4.93-11,11-11h5.93c6.08,0,11,4.93,11,11V673.18z"/>
							
								<ellipse transform="matrix(0.2298 -0.9732 0.9732 0.2298 -302.022 966.5326)" class="st1" cx="459.62" cy="674.08" rx="10.21" ry="10.21"/>
							<path class="st4" d="M474.34,673.18h-27.94v-5.53c0-6.08,4.93-11,11-11h5.93c6.08,0,11,4.93,11,11V673.18z"/>
						</g>
						<rect x="374.24" y="627.08" class="st1" width="16.27" height="36.87"/>
						<g>
							
								<ellipse transform="matrix(0.2298 -0.9732 0.9732 0.2298 -361.2546 891.689)" class="st1" cx="382.72" cy="674.08" rx="10.21" ry="10.21"/>
							<path class="st4" d="M397.44,673.18H369.5v-5.53c0-6.08,4.93-11,11-11h5.93c6.08,0,11,4.93,11,11V673.18z"/>
						</g>
					</g>
				</g>
				<g>
					<g>
						<g>
							<g>
								<path class="st16" d="M589.5,318.72l27.85,7.98c2.03,0.58,4.17-0.6,4.76-2.64l0,0c0.58-2.03-0.6-4.17-2.64-4.76l-27.85-7.98
									c-2.03-0.58-4.17,0.6-4.76,2.64l0,0C586.28,316,587.46,318.14,589.5,318.72z"/>
								<path class="st16" d="M597.18,327.94l22.36,6.41c2.03,0.58,4.17-0.6,4.76-2.64l0,0c0.58-2.03-0.6-4.17-2.64-4.76
									l-22.36-6.41c-2.03-0.58-4.17,0.6-4.76,2.64v0C593.95,325.22,595.14,327.36,597.18,327.94z"/>
								<path class="st16" d="M590.82,333.14l26.46,7.59c2.03,0.58,4.17-0.6,4.76-2.64l0,0c0.58-2.03-0.6-4.17-2.64-4.76
									l-26.46-7.59c-2.03-0.58-4.17,0.6-4.76,2.64l0,0C587.6,330.41,588.79,332.55,590.82,333.14z"/>
								<path class="st16" d="M568.75,335.1l28.41,5.66c2.07,0.41,4.11-0.95,4.52-3.02l0,0c0.41-2.07-0.95-4.11-3.02-4.52
									l-28.41-5.66c-2.07-0.41-4.11,0.95-4.52,3.02l0,0C565.31,332.65,566.67,334.68,568.75,335.1z"/>
							</g>
							<path class="st16" d="M610.68,325.62c-0.29-0.1-3.45-1.63-6.87-3.3c-5.9-2.88-12.4-4.32-18.97-4.19l-12.57,0.24
								c0,0-2.41,20.85-1.54,20.63c0.88-0.22,27.65,4.61,27.65,4.61L610.68,325.62z"/>
						</g>
						<rect x="564.67" y="316.33" class="st8" width="12" height="32.14"/>
					</g>
					<g>
						<path class="st0" d="M503.76,662.28l73.07-2.75c4.36-0.16,7.76-3.83,7.59-8.19l0,0c-0.13-3.36-2.36-6.26-5.57-7.25
							l-36.63-11.25l-39.48,2.45L503.76,662.28z"/>
						<path class="st1" d="M578.37,661.51l-73.95,3.33l-0.24-5.3l79.24-3.57l0,0C583.56,658.9,581.3,661.38,578.37,661.51z"/>
					</g>
					<g>
						<line class="st17" x1="541.82" y1="643.57" x2="549.98" y2="634.01"/>
						<line class="st17" x1="548.22" y1="645.94" x2="556.39" y2="636.38"/>
						<line class="st17" x1="554.4" y1="649.21" x2="563.59" y2="638.38"/>
					</g>
					<g>
						<defs>
							<path id="SVGID_9_" d="M499.86,636.37c4.24-71.32,3.1-137.26-2.46-150.61c-5.7-8.29-39.92-28.69-73.61-43.81l18.94-42.24
								c23.65,10.6,80.23,37.95,94.79,62.92c6.15,10.54,12.04,31.12,9.16,103.84c-1.51,38.09-3.37,67.93-3.37,67.93L499.86,636.37z"
								/>
						</defs>
						<clipPath id="SVGID_10_">
							<use xlink:href="#SVGID_9_"  style="overflow:visible;"/>
						</clipPath>
						<g class="st18">
							<path class="st1" d="M499.86,636.37c4.24-71.32,3.1-137.26-2.46-150.61c-5.7-8.29-39.92-28.69-73.61-43.81l18.94-42.24
								c23.65,10.6,80.23,37.95,94.79,62.92c6.15,10.54,12.04,31.12,9.16,103.84c-1.51,38.09-3.37,67.93-3.37,67.93L499.86,636.37z"
								/>
						</g>
						<path class="st19" d="M417.5,418.17c0,0,86.02,31.02,95.97,55.59c9.95,24.58,6.44,162.1,6.44,162.1l-28.67,1.17l-95.39-223.54
							L417.5,418.17z"/>
					</g>
					<path class="st20" d="M433.55,215.99l36.8,94.07c6.48,14.01,20.57,22.92,36,22.77l63.3-0.63"/>
					<path class="st16" d="M402.33,188.39h-14.01c-6.57,0-11.95-5.38-11.95-11.95v-46.36c0-6.57,5.38-11.95,11.95-11.95h14.01
						c6.57,0,11.95,5.38,11.95,11.95v46.36C414.28,183.02,408.9,188.39,402.33,188.39z"/>
					<path class="st21" d="M473.78,81.61c-0.06,0.92-0.15,1.85-0.25,2.77c-0.52,4.43-1.49,8.74-2.87,12.83
						c-5.91,17.5-19.31,31.36-36.18,38.01c-8.38,3.31-17.61,4.84-27.21,4.17c-15.53-1.09-28.95,4.95-39.17-5.23
						c-3.29-3.28-6.22-6.9-8.69-10.82c-0.97-1.55-1.88-3.11-2.72-4.72c-5.09-9.83-8.03-33.9-7.2-45.74
						c2.34-33.38,30.57-58.77,63.68-57.94c0.95,0.03,1.89,0.08,2.83,0.14c20.92,1.47,38.69,13.1,48.84,29.74
						c0.02,0.02,0.02,0.02,0.02,0.02c2.97,4.89,5.29,10.22,6.84,15.84C473.53,67.31,474.29,74.37,473.78,81.61z"/>
					<g>
						<path class="st22" d="M391.67,93.73c-0.07,1.3-0.37,2.55-0.9,3.69c-0.6,1.37-1.51,2.83-2.63,3.84
							c-2.04,1.83-4.76,3.11-7.71,2.95l-6.34-0.33l-4.86-0.25l0.72-14.43h0.02l0.12-2.67l0.11-2.07l0.11-1.9l0.02-0.49h0.02
							l11.18,0.58c2.83,0.14,5.34,1.37,7.16,3.25c1.11,1.14,1.95,2.55,2.46,4.07C391.56,91.17,391.74,92.41,391.67,93.73z"/>
						<path class="st23" d="M468.65,87.6l-1.19,23.33l-0.18,3.49c-0.11,2.3-0.4,4.58-0.83,6.78c-4,20.61-21.1,36.43-42.08,39.03
							c-0.63,0.1-1.28,0.16-1.91,0.19c-2.25,0.23-4.51,0.25-6.83,0.14c-2.25-0.11-4.42-0.39-6.58-0.79
							c-4.21-0.77-8.23-2.09-11.97-3.86c0,0-0.02,0-0.04-0.02c-16.29-7.71-27.53-23.96-28.12-42.52c-0.02-0.56-0.04-1.11-0.02-1.67
							c-0.04-0.65,0-1.32,0.04-1.98v-0.35l0.07-1.58l0.23-4.16l0.7-14.29l0.02-0.14v-0.02l0.14-2.65l0.11-2.07l0.11-1.9l0.04-0.49
							c0.19-3.3,0.86-6.5,1.83-9.55c0.65-2.14,1.46-4.23,2.35-6.23c0.12-0.33,0.25-0.61,0.39-0.91c0.74-1.65,1.6-3.28,2.53-4.83
							c0-0.02,0.02-0.04,0.02-0.04c3.53-5.9,8.29-11.01,13.9-14.96c1.12-0.79,2.28-1.54,3.46-2.25c8.2-4.81,17.82-7.39,27.97-6.86
							c13.57,0.7,25.74,6.79,34.22,16.1c4.55,4.97,7.53,10.8,9.71,17.24c0.84,2.46,1.39,4.99,1.69,7.57
							C468.79,80.67,468.84,84.09,468.65,87.6z"/>
						<path class="st22" d="M374.83,89.39l-0.74,14.48l-0.51,9.78l-3.85-0.19c-0.28-0.02-0.56-0.04-0.82-0.09
							c-6.41-0.77-11.24-6.62-10.92-13.04c0.16-3.34,1.7-6.11,4.06-8.22c2.11-1.88,4.88-2.88,7.9-2.91h0.02c0.35-0.04,0.65-0.04,1,0
							L374.83,89.39z"/>
					</g>
					<path class="st1" d="M451,107.14L451,107.14c-1.21,0-2.19-0.99-2.19-2.19v-7.02c0-1.21,0.99-2.19,2.19-2.19l0,0
						c1.21,0,2.19,0.99,2.19,2.19v7.02C453.19,106.15,452.21,107.14,451,107.14z"/>
					<path class="st1" d="M418.81,107.14L418.81,107.14c-1.21,0-2.19-0.99-2.19-2.19v-7.02c0-1.21,0.99-2.19,2.19-2.19l0,0
						c1.21,0,2.19,0.99,2.19,2.19v7.02C421.01,106.15,420.02,107.14,418.81,107.14z"/>
					<path class="st16" d="M414.28,160.39c0,0-8.78,0.59-17.2-4.48c0,0-0.02,0-0.04-0.02c-16.29-7.71-27.53-23.96-28.12-42.52
						c-6.41-0.77-11.24-6.62-10.92-13.04c0.16-3.34,1.7-6.11,4.06-8.22c2.11-1.88,4.88-2.88,7.9-2.91v-0.02l0.14-2.65l0.11-2.07
						l0.11-1.9l0.02-0.49h0.02c0.19-3.3,0.86-6.5,1.83-9.55c6.64-3.7,13.4-4.41,17.24,3.9c0,0-0.39,3.76-0.72,9.48
						c-0.26,4.28-0.51,9.66-0.54,15.36c-0.11,11.73,0.6,24.84,3.62,32.79C398.18,151.03,414.28,160.39,414.28,160.39z"/>
					<path class="st21" d="M470.58,53.79h-79.14c-5.2,0-9.45-4.25-9.45-9.45l0,0c0-5.2,4.25-9.45,9.45-9.45h79.14
						c5.2,0,9.45,4.25,9.45,9.45l0,0C480.03,49.53,475.78,53.79,470.58,53.79z"/>
					<path class="st21" d="M487.81,61.45c0.77,4.26-0.71,8.29-3.45,11.03c-2.25,2.25-5.37,3.65-8.78,3.65h-72.16
						c-10.35,0-18.74,8.39-18.74,18.74v11.67c0,3.87-3.17,7.04-7.04,7.04h-1.67c-3.89,0-7.04-3.15-7.04-7.04V71.38
						c0-0.28,0.02-0.54,0.05-0.81c-1.33-1.97-2.11-4.35-2.11-6.88c0-3.42,1.4-6.53,3.65-8.8c2.25-2.25,5.37-3.65,8.78-3.65h95.76
						C481.18,51.25,486.72,55.43,487.81,61.45z"/>
					<g>
						<path class="st13" d="M463.29,89.29h-15.51c-1.53,0-2.78-1.25-2.78-2.78l0,0c0-1.53,1.25-2.78,2.78-2.78h15.51
							c1.53,0,2.78,1.25,2.78,2.78l0,0C466.07,88.04,464.82,89.29,463.29,89.29z"/>
						<path class="st13" d="M425.54,89.29h-15.51c-1.53,0-2.78-1.25-2.78-2.78l0,0c0-1.53,1.25-2.78,2.78-2.78h15.51
							c1.53,0,2.78,1.25,2.78,2.78l0,0C428.32,88.04,427.07,89.29,425.54,89.29z"/>
						<g class="st24">
							<polygon class="st5" points="420.13,94.85 427.44,109.19 433,108.6 425.4,94.85 							"/>
							<polygon class="st5" points="454.36,94.85 461.68,109.19 467.24,108.6 459.63,94.85 							"/>
						</g>
						<path class="st25" d="M464.12,109.99h-17.73c-1.51,0-2.74-1.23-2.74-2.74V96.93c0-1.51,1.23-2.74,2.74-2.74h17.73
							c1.51,0,2.74,1.23,2.74,2.74v10.32C466.86,108.76,465.63,109.99,464.12,109.99z"/>
						<path class="st26" d="M431.87,109.99h-19.39c-1.57,0-2.85-1.28-2.85-2.85v-10.1c0-1.57,1.28-2.85,2.85-2.85h19.39
							c1.57,0,2.85,1.28,2.85,2.85v10.1C434.72,108.71,433.44,109.99,431.87,109.99z"/>
						<path class="st27" d="M443.99,128.85c-2.6,2.69-6.62,4.26-11.05,4.03c-3.72-0.19-7.02-1.61-9.35-3.8"/>
						<path class="st16" d="M445.1,116.19c0.01,0.07-0.3-0.01-0.3-0.01c-0.07,2.49-2.23,4.47-7.58,4.32l-0.63-19.65
							C442.29,108.09,444.71,112.11,445.1,116.19z"/>
						<line class="st26" x1="435.05" y1="102.16" x2="444.42" y2="102.46"/>
					</g>
					<path class="st1" d="M457.18,234.93v177.38l-128.94,14.1l-6.34-191.48c0-28.51,20.65-52.23,47.8-57
						c3.27-0.56,6.62-0.86,10.06-0.86h19.56C431.27,177.07,457.18,202.98,457.18,234.93z"/>
					<path class="st1" d="M446.95,427.89c0,7.99-2.84,15.31-7.57,21.01c-6.04,7.32-15.2,11.99-25.46,11.99h-55.49
						c-1.65,0-3.27-0.12-4.85-0.37c-4.07-0.58-7.9-1.93-11.34-3.88c-0.61-0.33-1.21-0.7-1.79-1.09
						c-9.04-5.88-15.03-16.08-15.03-27.67l1.02-17.61l119.54-1.04L446.95,427.89z"/>
					<g>
						<rect x="377.57" y="173.56" class="st8" width="44.6" height="208"/>
					</g>
					<polygon class="st1" points="401.37,200.86 388.36,182.34 400.35,175.17 414.38,182.34 					"/>
					<polygon class="st1" points="405.97,386.6 391.44,367 397.27,192.14 406.29,193.01 419.48,366.28 					"/>
					<polygon class="st5" points="422.95,190.69 402.03,176.37 377.58,190.69 375.85,173.06 422.95,173.06 					"/>
					<g>
						<path class="st0" d="M412.48,649.7l68.37,25.91c4.08,1.55,8.64-0.51,10.18-4.59l0,0c1.19-3.14,0.26-6.69-2.31-8.85
							l-29.36-24.62l-37.32-13.11L412.48,649.7z"/>
						<path class="st1" d="M481.51,678.03l-69.41-25.72l1.84-4.97l74.38,27.56l0,0C487.31,677.65,484.25,679.05,481.51,678.03z"/>
					</g>
					<g>
						<path class="st12" d="M468.81,564.05c-0.97,37.76-4.3,72.29-4.44,73.73l-24.51-2.39l-21.56-2.09
							c6.25-64.38,5.97-129.14-0.54-142.96c-7.55-7.11-36.88-20.07-64.17-29.83c-3.84-1.37-7.65-2.67-11.34-3.88
							c-0.65-0.23-1.3-0.44-1.95-0.65l0.16-0.44c0,0,22.62-39.73,70.27-26.06c10.04,2.88,18.29,12.42,28.66,19.4
							c5.37,3.6,9.95,7.3,13.29,10.97C462.19,470.34,470.72,490.19,468.81,564.05z"/>
					</g>
					<g>
						<line class="st17" x1="452.46" y1="644.93" x2="463.87" y2="639.66"/>
						<line class="st17" x1="457.29" y1="649.76" x2="468.7" y2="644.49"/>
						<line class="st17" x1="461.53" y1="655.32" x2="474.41" y2="649.32"/>
					</g>
					<path class="st12" d="M371.85,257.25l-49.95-20.47v-1.84c0-28.51,20.65-52.23,47.8-57c0.12,0.1,0.26,0.21,0.39,0.32
						L371.85,257.25z"/>
					<path class="st1" d="M439.86,635.4l-21.56-2.09c6.25-64.38,5.97-129.14-0.54-142.96c-7.55-7.11-36.88-20.07-64.17-29.83
						c-4.07-0.58-7.9-1.93-11.34-3.88c-0.65-0.23-1.3-0.44-1.95-0.65l0.16-0.44c-9.04-5.88-15.03-16.08-15.03-27.67l1.02-17.61
						l19.07,2.62c-0.46,1.37-3.04,14.82,1.67,22.89c1.32,2.3,3.23,4.16,5.95,5.2c7.46,2.84,35.85,9.8,58.44,19.91
						c14.61,6.55,26.81,14.43,29.34,23.4C446.84,505.36,440.82,618.17,439.86,635.4z"/>
					<g>
						<g>
							<path class="st28" d="M691.66,360.38H576.73c-7.52,0-12.49-7.82-9.3-14.62l40.09-85.52c3.49-7.46,10.99-12.22,19.22-12.22
								h105.81c5.48,0,9.1,5.7,6.78,10.66L691.66,360.38z"/>
							<g>
								<g>
									<path class="st28" d="M577.15,360.67H495.2c-3.31,0-6.02-2.71-6.02-6.02l0,0c0-3.31,2.71-6.02,6.02-6.02h81.95
										c3.31,0,6.02,2.71,6.02,6.02l0,0C583.17,357.96,580.46,360.67,577.15,360.67z"/>
								</g>
								<g>
									<rect x="536" y="352.63" class="st1" width="11.7" height="3.51"/>
									<rect x="524" y="352.63" class="st1" width="8.49" height="3.51"/>
								</g>
							</g>
							<path class="st29" d="M689.93,360.38h-115.2c-4.14,0-6.87-4.3-5.11-8.04l43.17-92.1c3.5-7.46,10.99-12.22,19.22-12.22h105.81
								c5.48,0,9.1,5.7,6.78,10.66l-44.7,95.36C698.08,357.91,694.2,360.38,689.93,360.38z"/>
						</g>
						<path class="st5" d="M664.76,310.77c-2.73,6.39-7.84,10.33-11.4,8.81c-3.57-1.52-4.24-7.94-1.51-14.33
							c2.73-6.39,7.84-10.33,11.4-8.81C666.81,297.96,667.49,304.38,664.76,310.77z"/>
					</g>
					<g>
						<g>
							<g>
								<path class="st16" d="M485.07,333.84l28.6-4.57c2.09-0.33,3.52-2.32,3.19-4.41l0,0c-0.33-2.09-2.32-3.52-4.41-3.19
									l-28.6,4.57c-2.09,0.33-3.52,2.32-3.19,4.41l0,0C481,332.74,482.98,334.17,485.07,333.84z"/>
								<path class="st16" d="M494.18,341.57l22.97-3.67c2.09-0.33,3.52-2.32,3.19-4.41l0,0c-0.33-2.09-2.32-3.52-4.41-3.19
									l-22.97,3.67c-2.09,0.33-3.52,2.32-3.19,4.41l0,0C490.11,340.47,492.09,341.91,494.18,341.57z"/>
								<path class="st16" d="M488.87,351.6l27.18-4.35c2.09-0.33,3.52-2.32,3.19-4.41l0,0c-0.33-2.09-2.32-3.52-4.41-3.19
									l-27.18,4.35c-2.09,0.33-3.52,2.32-3.19,4.41l0,0C484.8,350.5,486.78,351.94,488.87,351.6z"/>
							</g>
							<path class="st16" d="M497.42,326.44c-0.31,0.04-3.82-0.01-7.62-0.08c-6.56-0.11-13.06,1.35-18.95,4.24l-11.28,5.55
								c0,0,6.46,19.17,7.35,19.33c21.75,3.93,29.21-5.94,29.21-5.94L497.42,326.44z"/>
						</g>
						<rect x="470.92" y="326.37" class="st8" width="9.66" height="31.38"/>
					</g>
					<g>
						<path class="st12" d="M407.65,361.15c-22.77,0-43.58-13.29-53.14-33.98l-0.47-1.02l-29.8-90.99l36.71-12.02l29.04,88.67
							c3.45,6.62,10.37,10.8,17.87,10.72l63.3-0.63l0.38,38.62l-63.3,0.63C408.04,361.15,407.84,361.15,407.65,361.15z"/>
					</g>
					<g>
						<rect x="386.63" y="399.44" class="st0" width="32.19" height="11.08"/>
					</g>
				</g>
				<rect x="322.69" y="389.49" class="st29" width="28.09" height="304.3"/>
				<rect x="682.01" y="389.49" class="st29" width="28.09" height="304.31"/>
				<rect x="818.94" y="389.49" class="st29" width="28.09" height="304.31"/>
				<polygon class="st4" points="682.01,389.49 710.09,389.49 710.09,489.86 682.01,503.8 				"/>
				<polygon class="st4" points="847.03,389.49 847.03,421.91 818.94,435.85 818.94,389.49 				"/>
				<polygon class="st4" points="351.02,388.89 351.02,421.73 322.57,435.85 322.57,388.89 				"/>
				<g>
					<path class="st4" d="M159.38,398.57h630.51v-27.8c0-5.6-4.54-10.14-10.14-10.14H169.52c-5.6,0-10.14,4.54-10.14,10.14V398.57z"
						/>
				</g>
				<g>
					<rect x="251.64" y="332.53" class="st30" width="137.7" height="29.3"/>
					<rect x="326.03" y="332.19" class="st8" width="63.68" height="29.96"/>
					<g>
						<line class="st31" x1="251.76" y1="337.92" x2="389.59" y2="337.92"/>
						<line class="st31" x1="251.76" y1="343.81" x2="389.59" y2="343.81"/>
						<line class="st31" x1="251.76" y1="349.7" x2="389.59" y2="349.7"/>
						<line class="st31" x1="251.76" y1="355.6" x2="389.59" y2="355.6"/>
					</g>
				</g>
				<g>
					<rect x="23.57" y="446.06" class="st13" width="193.34" height="247.69"/>
					<rect x="95.42" y="446.06" class="st13" width="205.55" height="247.69"/>
					<g>
						<rect x="108.56" y="464.2" class="st10" width="180.24" height="65.54"/>
						<rect x="108.56" y="541.11" class="st10" width="180.24" height="65.54"/>
						<rect x="108.56" y="618.02" class="st10" width="180.24" height="65.54"/>
					</g>
					<g>
						<path class="st5" d="M230.23,500.48h-45.06c-1.93,0-3.51-1.58-3.51-3.51l0,0c0-1.93,1.58-3.51,3.51-3.51h45.06
							c1.93,0,3.51,1.58,3.51,3.51l0,0C233.75,498.9,232.17,500.48,230.23,500.48z"/>
						<path class="st5" d="M231.99,576.85h-45.06c-1.93,0-3.51-1.58-3.51-3.51l0,0c0-1.93,1.58-3.51,3.51-3.51h45.06
							c1.93,0,3.51,1.58,3.51,3.51l0,0C235.5,575.27,233.92,576.85,231.99,576.85z"/>
						<path class="st5" d="M231.99,653.21h-45.06c-1.93,0-3.51-1.58-3.51-3.51l0,0c0-1.93,1.58-3.51,3.51-3.51h45.06
							c1.93,0,3.51,1.58,3.51,3.51l0,0C235.5,651.63,233.92,653.21,231.99,653.21z"/>
					</g>
				</g>
				<g>
					<g>
						<path class="st3" d="M464.02,320.08v43.08h-35.99v-43.08c0-1.9,1.54-3.44,3.44-3.44h29.11
							C462.47,316.64,464.02,318.18,464.02,320.08z"/>
						<g>
							<path class="st2" d="M428.47,355.79c-0.47-0.27-11.52-6.74-12.5-18.08c-0.38-4.32,1.26-7,2.7-8.48
								c3.95-4.08,10.53-3.85,11.26-3.81l-0.29,5.26c-1.33-0.06-5.26,0.21-7.2,2.23c-0.99,1.03-1.39,2.45-1.22,4.35
								c0.75,8.62,9.79,13.91,9.88,13.96L428.47,355.79z"/>
						</g>
						<path class="st9" d="M455.13,344.07h-10.31c-3.58,0-6.47-2.9-6.47-6.47l0,0c0-3.58,2.9-6.47,6.47-6.47h10.31
							c3.58,0,6.47,2.9,6.47,6.47l0,0C461.61,341.17,458.71,344.07,455.13,344.07z"/>
					</g>
					<path class="st2" d="M447.2,363.16h-19.17v-43.08c0-1.9,1.54-3.44,3.44-3.44h1.16c0.05,2.25,0.67,19.43,5.49,31.81
						C442.32,359.23,446.06,362.4,447.2,363.16z"/>
				</g>
				<g>
					<line class="st11" x1="729.11" y1="338.05" x2="825.67" y2="338.05"/>
					<line class="st11" x1="729.11" y1="343.61" x2="825.67" y2="343.61"/>
					<line class="st11" x1="729.11" y1="347.94" x2="825.67" y2="347.94"/>
					<line class="st11" x1="729.11" y1="353.5" x2="825.67" y2="353.5"/>
				</g>
				<g>
					<g>
						<g>
							<polygon class="st5" points="312.45,333.02 335.57,283.28 358.39,332.44 							"/>
							<rect x="294.02" y="283.57" class="st5" width="41.55" height="47.99"/>
							<polygon class="st4" points="272.66,333.02 293.73,283.87 316.55,333.02 							"/>
						</g>
						<g>
							<g>
								<rect x="310.99" y="289.72" class="st0" width="20.77" height="2.05"/>
							</g>
							<g>
								<rect x="312.75" y="293.81" class="st0" width="20.77" height="2.05"/>
							</g>
							<g>
								<path class="st0" d="M324.25,326.96l-11.14-26.26l24.24,0.09l11.96,25.46L324.25,326.96z M315.75,302.41l9.65,22.74
									l21.18-0.52l-10.29-22.05L315.75,302.41z"/>
							</g>
						</g>
					</g>
					<g>
						<line class="st32" x1="317.06" y1="306.18" x2="339.26" y2="306.18"/>
						<line class="st32" x1="318.99" y1="310.97" x2="341.18" y2="310.97"/>
						<line class="st32" x1="320.57" y1="315.76" x2="342.77" y2="315.76"/>
						<line class="st32" x1="323.18" y1="320.55" x2="345.37" y2="320.55"/>
					</g>
					<g>
						<line class="st32" x1="332.64" y1="302.12" x2="342.96" y2="325.05"/>
						<line class="st32" x1="326.5" y1="302.23" x2="336.81" y2="325.16"/>
						<line class="st32" x1="320.46" y1="301.79" x2="330.67" y2="325.6"/>
					</g>
				</g>
				<g>
					<g>
						
							<rect x="828.4" y="247.48" transform="matrix(0.9847 0.1743 -0.1743 0.9847 62.8879 -140.4742)" class="st33" width="5.85" height="80.76"/>
						
							<rect x="832.21" y="245.92" transform="matrix(0.9847 0.1743 -0.1743 0.9847 57.7775 -141.8732)" class="st33" width="9.07" height="24.29"/>
					</g>
					<g>
						<polygon class="st13" points="817.57,338.28 811.73,337.79 818.48,257.32 822.01,252.17 824.31,257.81 						"/>
					</g>
					<g>
						<polygon class="st12" points="809.46,342.39 803.72,343.51 788.28,264.24 790.28,258.33 794.03,263.12 						"/>
					</g>
					<g>
						<polygon class="st2" points="822.37,360.83 797.36,360.83 789.16,294.62 830.58,294.62 						"/>
						<polygon class="st3" points="831.81,360.83 806.79,360.83 803.1,294.62 840.01,294.62 						"/>
					</g>
				</g>
				<g>
					<g>
						<path class="st33" d="M217.26,413.54v32.71H115.71c-7.09,0-13.15-4.53-15.41-10.86c-0.61-1.71-0.95-3.57-0.95-5.51
							c0-4.5,1.83-8.59,4.78-11.56c2.97-2.96,7.06-4.78,11.58-4.78H217.26z"/>
						<path class="st34" d="M179,435.39v10.86h-63.29c-7.09,0-13.15-4.53-15.41-10.86H179z"/>
						<path class="st1" d="M255.64,413.53v32.72l-101.55,0c-9.03,0-16.36-7.33-16.36-16.36c0-4.51,1.83-8.6,4.79-11.57
							c2.97-2.95,7.07-4.79,11.57-4.79L255.64,413.53z"/>
						<path class="st8" d="M255.64,419.14v20.98l-97.14,0c-5.8,0-10.49-4.69-10.49-10.49c0-2.9,1.18-5.52,3.07-7.42
							c1.91-1.89,4.52-3.07,7.42-3.07L255.64,419.14z"/>
					</g>
					<g>
						<path class="st3" d="M219.47,348.51v32.72l-101.55,0c-9.03,0-16.36-7.33-16.36-16.36c0-4.51,1.83-8.6,4.79-11.57
							c2.97-2.95,7.07-4.79,11.57-4.79L219.47,348.51z"/>
						<path class="st35" d="M180.89,359.43v-10.86H117.6c-7.09,0-13.15,4.53-15.42,10.86H180.89z"/>
						<path class="st10" d="M255.64,348.51v32.72l-101.55,0c-9.03,0-16.36-7.33-16.36-16.36c0-4.51,1.83-8.6,4.79-11.57
							c2.97-2.95,7.07-4.79,11.57-4.79L255.64,348.51z"/>
						<path class="st8" d="M255.64,354.12v20.98l-97.14,0c-5.8,0-10.49-4.69-10.49-10.49c0-2.9,1.18-5.52,3.07-7.42
							c1.91-1.89,4.52-3.07,7.42-3.07L255.64,354.12z"/>
					</g>
					<g>
						<path class="st36" d="M225.37,381.42v32.73H123.82c-9.03,0-16.35-7.33-16.35-16.36c0-2.77,0.69-5.39,1.91-7.69
							c0.76-1.43,1.74-2.75,2.87-3.89c2.97-2.96,7.06-4.78,11.56-4.78H225.37z"/>
						<path class="st37" d="M209.66,381.42v8.68H109.39c0.76-1.43,1.74-2.75,2.87-3.89c2.97-2.96,7.06-4.78,11.56-4.78H209.66z"/>
						<path class="st37" d="M209.66,414.16v-8.68H109.39c0.76,1.43,1.74,2.75,2.87,3.89c2.97,2.96,7.06,4.78,11.56,4.78H209.66z"/>
						<path class="st38" d="M275.58,381.42v32.72l-101.55,0c-9.03,0-16.36-7.33-16.36-16.36c0-4.51,1.83-8.6,4.79-11.57
							c2.97-2.95,7.07-4.79,11.57-4.79L275.58,381.42z"/>
						<path class="st8" d="M275.58,387.03v20.98l-97.14,0c-5.8,0-10.49-4.69-10.49-10.49c0-2.9,1.18-5.52,3.07-7.42
							c1.91-1.89,4.52-3.07,7.42-3.07L275.58,387.03z"/>
					</g>
				</g>
				<g>
					<g>
						<path class="st39" d="M119.57,359.86c-13.59,18.5-40.84,21.57-40.84,21.57s-5.23-26.93,8.36-45.43
							c13.59-18.5,40.84-21.57,40.84-21.57S133.16,341.36,119.57,359.86z"/>
						<path class="st40" d="M62.52,348.8c12.45,12.27,11.77,33.16,11.77,33.16s-20.87,0.98-33.33-11.29
							c-12.45-12.27-11.77-33.16-11.77-33.16S50.07,336.53,62.52,348.8z"/>
						<path class="st41" d="M93.39,339.52c2.53,22.81-15.45,43.53-15.45,43.53s-22.08-16.27-24.61-39.09
							c-2.53-22.81,15.45-43.53,15.45-43.53S90.86,316.7,93.39,339.52z"/>
					</g>
					<g>
						<polygon class="st13" points="91.71,446.08 44.43,446.08 28.93,377.1 107.21,377.1 						"/>
						<polygon class="st42" points="109.53,446.08 62.25,446.08 55.28,377.1 125.03,377.1 						"/>
					</g>
				</g>
			</g>
			<g>
				<g>
					<defs>
						<path id="SVGID_11_" d="M499.86,636.37c4.24-71.32,3.1-137.26-2.46-150.61c-5.7-8.29-39.92-28.69-73.61-43.81l18.94-42.24
							c23.65,10.6,80.23,37.95,94.79,62.92c6.15,10.54,12.04,31.12,9.16,103.84c-1.51,38.09-3.37,67.93-3.37,67.93L499.86,636.37z"
							/>
					</defs>
					<clipPath id="SVGID_12_">
						<use xlink:href="#SVGID_11_"  style="overflow:visible;"/>
					</clipPath>
				</g>
			</g>
		</g>
		<g>
			<g>
				<g>
					<defs>
						<path id="SVGID_13_" d="M499.86,636.37c4.24-71.32,3.1-137.26-2.46-150.61c-5.7-8.29-39.92-28.69-73.61-43.81l18.94-42.24
							c23.65,10.6,80.23,37.95,94.79,62.92c6.15,10.54,12.04,31.12,9.16,103.84c-1.51,38.09-3.37,67.93-3.37,67.93L499.86,636.37z"
							/>
					</defs>
					<clipPath id="SVGID_14_">
						<use xlink:href="#SVGID_13_"  style="overflow:visible;"/>
					</clipPath>
				</g>
			</g>
			<g>
				<g>
					<defs>
						<path id="SVGID_15_" d="M499.86,636.37c4.24-71.32,3.1-137.26-2.46-150.61c-5.7-8.29-39.92-28.69-73.61-43.81l18.94-42.24
							c23.65,10.6,80.23,37.95,94.79,62.92c6.15,10.54,12.04,31.12,9.16,103.84c-1.51,38.09-3.37,67.93-3.37,67.93L499.86,636.37z"
							/>
					</defs>
					<clipPath id="SVGID_16_">
						<use xlink:href="#SVGID_15_"  style="overflow:visible;"/>
					</clipPath>
				</g>
			</g>
			<g>
				<g>
					<defs>
						<path id="SVGID_17_" d="M499.86,636.37c4.24-71.32,3.1-137.26-2.46-150.61c-5.7-8.29-39.92-28.69-73.61-43.81l18.94-42.24
							c23.65,10.6,80.23,37.95,94.79,62.92c6.15,10.54,12.04,31.12,9.16,103.84c-1.51,38.09-3.37,67.93-3.37,67.93L499.86,636.37z"
							/>
					</defs>
					<clipPath id="SVGID_18_">
						<use xlink:href="#SVGID_17_"  style="overflow:visible;"/>
					</clipPath>
				</g>
			</g>
		</g>
	</g>
	<g>
		<path class="st43" d="M298.66,398.57h595.4v-27.8c0-5.6-4.54-10.14-10.14-10.14H308.79c-5.6,0-10.14,4.54-10.14,10.14V398.57z"/>
	</g>
</g>
</svg>
